<svg width="36" height="36" viewBox="0 0 36 36" fill="none" xmlns="http://www.w3.org/2000/svg">
<path fill-rule="evenodd" clip-rule="evenodd" d="M14.9982 18.0018L7.32801 22.488L1.24808 19.6971L0 22.4426L4.1492 24.3473L1.86691 25.6821L3.35235 28.2886L5.63425 26.9539L5.18791 31.5457L8.15898 31.8235L8.81306 25.0947L16.4869 20.6063V29.6292L11.057 33.5702L12.8191 35.9981L16.4869 33.3361V36H19.4869V33.336L23.1548 35.9981L24.9169 33.5702L19.4869 29.6291V20.6272L27.1778 25.1255L27.8319 31.855L30.803 31.5772L30.3566 26.9847L32.639 28.3197L34.1244 25.7133L31.8424 24.3785L35.9909 22.4742L34.7429 19.7287L28.6636 22.5193L20.9399 18.0018L28.6398 13.4983L34.7592 16.3073L36.0073 13.5618L31.8186 11.639L34.1274 10.2886L32.642 7.68213L30.3773 9.00675L30.8194 4.45871L27.8483 4.18093L27.1985 10.866L19.4869 15.3764V6.40132L24.9518 2.43491L23.1896 0.00698921L19.4869 2.69444V0H16.4869V2.64368L12.854 0.00698921L11.0919 2.43491L16.4869 6.35057V15.3973L8.83663 10.9227L8.17826 4.14974L5.20718 4.42752L5.65782 9.06347L3.34934 7.71326L1.86391 10.3197L4.12857 11.6443L0.0192776 13.5306L1.26735 16.2761L7.30737 13.5035L14.9982 18.0018Z" fill="white"/>
</svg>
